<svg width="148" height="55" viewBox="0 0 148 55" fill="none" xmlns="http://www.w3.org/2000/svg">
<g filter="url(#filter0_d_271_180)">
<rect x="2.41553" y="1.43018" width="143" height="50" rx="8" fill="#ED2025"/>
<g clip-path="url(#clip0_271_180)">
<path d="M35.4155 16.4204C22.6391 16.4204 22.4155 17.5566 22.4155 26.4304C22.4155 35.3042 22.6391 36.4404 35.4155 36.4404C48.1919 36.4404 48.4155 35.3042 48.4155 26.4304C48.4155 17.5566 48.1919 16.4204 35.4155 16.4204ZM39.582 26.8646L33.745 29.5894C33.2341 29.826 32.8155 29.5608 32.8155 28.9966V23.8642C32.8155 23.3013 33.2341 23.0348 33.745 23.2714L39.582 25.9962C40.0929 26.2354 40.0929 26.6254 39.582 26.8646Z" fill="white"/>
</g>
<path d="M58.7962 20.7938H60.7905L63.8303 26.0836H63.9553L66.9951 20.7938H68.9894L64.7678 27.862V32.4302H63.0178V27.862L58.7962 20.7938ZM72.7493 32.6063C71.9312 32.6063 71.2171 32.4188 70.6073 32.0438C69.9974 31.6688 69.524 31.1442 69.1868 30.4699C68.8497 29.7957 68.6812 29.0078 68.6812 28.1063C68.6812 27.201 68.8497 26.4093 69.1868 25.7313C69.524 25.0533 69.9974 24.5268 70.6073 24.1518C71.2171 23.7768 71.9312 23.5893 72.7493 23.5893C73.5675 23.5893 74.2815 23.7768 74.8914 24.1518C75.5012 24.5268 75.9747 25.0533 76.3118 25.7313C76.649 26.4093 76.8175 27.201 76.8175 28.1063C76.8175 29.0078 76.649 29.7957 76.3118 30.4699C75.9747 31.1442 75.5012 31.6688 74.8914 32.0438C74.2815 32.4188 73.5675 32.6063 72.7493 32.6063ZM72.755 31.1802C73.2853 31.1802 73.7247 31.04 74.0732 30.7597C74.4217 30.4794 74.6793 30.1063 74.8459 29.6404C75.0164 29.1745 75.1016 28.6612 75.1016 28.1006C75.1016 27.5438 75.0164 27.0324 74.8459 26.5665C74.6793 26.0968 74.4217 25.7199 74.0732 25.4359C73.7247 25.1518 73.2853 25.0097 72.755 25.0097C72.2209 25.0097 71.7777 25.1518 71.4255 25.4359C71.077 25.7199 70.8175 26.0968 70.6471 26.5665C70.4804 27.0324 70.3971 27.5438 70.3971 28.1006C70.3971 28.6612 70.4804 29.1745 70.6471 29.6404C70.8175 30.1063 71.077 30.4794 71.4255 30.7597C71.7777 31.04 72.2209 31.1802 72.755 31.1802ZM84.2422 28.8109V23.7029H85.9468V32.4302H84.2763V30.9188H84.1854C83.9847 31.3847 83.6627 31.773 83.2195 32.0836C82.7801 32.3904 82.2328 32.5438 81.5775 32.5438C81.0169 32.5438 80.5206 32.4207 80.0888 32.1745C79.6608 31.9245 79.3237 31.5552 79.0775 31.0665C78.835 30.5779 78.7138 29.9737 78.7138 29.254V23.7029H80.4127V29.0495C80.4127 29.6442 80.5775 30.1177 80.907 30.4699C81.2366 30.8222 81.6646 30.9984 82.1911 30.9984C82.5093 30.9984 82.8256 30.9188 83.14 30.7597C83.4581 30.6006 83.7214 30.3601 83.9297 30.0381C84.1419 29.7162 84.246 29.3071 84.2422 28.8109ZM86.9794 22.3052V20.7938H95.9851V22.3052H92.3544V32.4302H90.6044V22.3052H86.9794ZM102.18 28.8109V23.7029H103.884V32.4302H102.214V30.9188H102.123C101.922 31.3847 101.6 31.773 101.157 32.0836C100.718 32.3904 100.17 32.5438 99.515 32.5438C98.9544 32.5438 98.4581 32.4207 98.0263 32.1745C97.5983 31.9245 97.2612 31.5552 97.015 31.0665C96.7725 30.5779 96.6513 29.9737 96.6513 29.254V23.7029H98.3502V29.0495C98.3502 29.6442 98.515 30.1177 98.8445 30.4699C99.1741 30.8222 99.6021 30.9984 100.129 30.9984C100.447 30.9984 100.763 30.9188 101.077 30.7597C101.396 30.6006 101.659 30.3601 101.867 30.0381C102.079 29.7162 102.184 29.3071 102.18 28.8109ZM106.303 32.4302V20.7938H108.002V25.1177H108.104C108.203 24.9359 108.345 24.7256 108.531 24.487C108.716 24.2484 108.974 24.04 109.303 23.862C109.633 23.6802 110.068 23.5893 110.61 23.5893C111.315 23.5893 111.943 23.7673 112.496 24.1234C113.05 24.4794 113.483 24.9927 113.798 25.6631C114.116 26.3336 114.275 27.1404 114.275 28.0836C114.275 29.0268 114.118 29.8355 113.803 30.5097C113.489 31.1802 113.057 31.6972 112.508 32.0609C111.959 32.4207 111.332 32.6006 110.627 32.6006C110.097 32.6006 109.663 32.5116 109.326 32.3336C108.993 32.1556 108.731 31.9472 108.542 31.7086C108.353 31.4699 108.207 31.2578 108.104 31.0722H107.962V32.4302H106.303ZM107.968 28.0665C107.968 28.6802 108.057 29.2181 108.235 29.6802C108.413 30.1423 108.671 30.504 109.008 30.7654C109.345 31.023 109.758 31.1518 110.246 31.1518C110.754 31.1518 111.178 31.0173 111.519 30.7484C111.86 30.4756 112.118 30.1063 112.292 29.6404C112.47 29.1745 112.559 28.6499 112.559 28.0665C112.559 27.4908 112.472 26.9737 112.298 26.5154C112.127 26.0571 111.87 25.6953 111.525 25.4302C111.184 25.165 110.758 25.0324 110.246 25.0324C109.754 25.0324 109.337 25.1593 108.996 25.4131C108.659 25.6669 108.404 26.0211 108.229 26.4756C108.055 26.9302 107.968 27.4605 107.968 28.0665ZM119.944 32.6063C119.084 32.6063 118.344 32.4226 117.722 32.0552C117.105 31.684 116.628 31.1631 116.291 30.4927C115.957 29.8184 115.791 29.0287 115.791 28.1234C115.791 27.2294 115.957 26.4415 116.291 25.7597C116.628 25.0779 117.097 24.5457 117.7 24.1631C118.306 23.7806 119.014 23.5893 119.825 23.5893C120.317 23.5893 120.794 23.6707 121.256 23.8336C121.719 23.9965 122.133 24.2521 122.501 24.6006C122.868 24.9491 123.158 25.4018 123.37 25.9586C123.582 26.5116 123.688 27.184 123.688 27.9756V28.5779H116.751V27.3052H122.023C122.023 26.8582 121.933 26.4624 121.751 26.1177C121.569 25.7692 121.313 25.4946 120.984 25.2938C120.658 25.0931 120.275 24.9927 119.836 24.9927C119.359 24.9927 118.942 25.1101 118.586 25.3449C118.234 25.576 117.961 25.879 117.768 26.254C117.578 26.6253 117.484 27.0287 117.484 27.4643V28.4586C117.484 29.0419 117.586 29.5381 117.791 29.9472C117.999 30.3563 118.289 30.6688 118.66 30.8847C119.031 31.0968 119.465 31.2029 119.961 31.2029C120.283 31.2029 120.577 31.1574 120.842 31.0665C121.107 30.9718 121.336 30.8317 121.529 30.6461C121.722 30.4605 121.87 30.2313 121.972 29.9586L123.58 30.2484C123.452 30.7218 123.22 31.1366 122.887 31.4927C122.558 31.8449 122.143 32.1196 121.643 32.3165C121.147 32.5097 120.58 32.6063 119.944 32.6063Z" fill="white"/>
<rect x="2.91553" y="1.93018" width="142" height="49" rx="7.5" stroke="#ED2025"/>
</g>
<defs>
<filter id="filter0_d_271_180" x="0.415527" y="0.430176" width="147" height="54" filterUnits="userSpaceOnUse" color-interpolation-filters="sRGB">
<feFlood flood-opacity="0" result="BackgroundImageFix"/>
<feColorMatrix in="SourceAlpha" type="matrix" values="0 0 0 0 0 0 0 0 0 0 0 0 0 0 0 0 0 0 127 0" result="hardAlpha"/>
<feOffset dy="1"/>
<feGaussianBlur stdDeviation="1"/>
<feColorMatrix type="matrix" values="0 0 0 0 0.0627451 0 0 0 0 0.0941176 0 0 0 0 0.156863 0 0 0 0.05 0"/>
<feBlend mode="normal" in2="BackgroundImageFix" result="effect1_dropShadow_271_180"/>
<feBlend mode="normal" in="SourceGraphic" in2="effect1_dropShadow_271_180" result="shape"/>
</filter>
<clipPath id="clip0_271_180">
<rect width="26" height="26" fill="white" transform="translate(22.4155 13.4302)"/>
</clipPath>
</defs>
</svg>
